<?xml version="1.0" encoding="utf-8"?>
<!-- Generator: Adobe Illustrator 16.0.4, SVG Export Plug-In . SVG Version: 6.00 Build 0)  -->
<!DOCTYPE svg PUBLIC "-//W3C//DTD SVG 1.1//EN" "http://www.w3.org/Graphics/SVG/1.1/DTD/svg11.dtd">
<svg version="1.1" xmlns="http://www.w3.org/2000/svg" xmlns:xlink="http://www.w3.org/1999/xlink" x="0px" y="0px" width="600px"
	 height="700px" viewBox="0 0 600 700" enable-background="new 0 0 600 700" xml:space="preserve">
<g id="Layer_8">
	<g>
		<defs>
			<circle id="SVGID_1_" cx="300" cy="294" r="250"/>
		</defs>
		<clipPath id="SVGID_2_">
			<use xlink:href="#SVGID_1_"  overflow="visible"/>
		</clipPath>
		<g clip-path="url(#SVGID_2_)">
			<g>
				<line fill="#C9552D" stroke="#48CBEF" stroke-width="40" stroke-miterlimit="10" x1="17" y1="59.5" x2="581" y2="59.5"/>
				<line fill="#B4653F" stroke="#5AC2E7" stroke-width="40" stroke-miterlimit="10" x1="18" y1="111.5" x2="581" y2="111.5"/>
				<line fill="#9E7552" stroke="#6DB9DF" stroke-width="40" stroke-miterlimit="10" x1="18" y1="163.5" x2="581" y2="163.5"/>
				<line fill="#898464" stroke="#7FB0D7" stroke-width="40" stroke-miterlimit="10" x1="18" y1="215.5" x2="581" y2="215.5"/>
				<line fill="#749476" stroke="#91A7CF" stroke-width="40" stroke-miterlimit="10" x1="18" y1="266.5" x2="581" y2="266.5"/>
				<line fill="#5EA489" stroke="#A49EC6" stroke-width="40" stroke-miterlimit="10" x1="18" y1="318.5" x2="582" y2="318.5"/>
				<line fill="#49B49B" stroke="#B695BE" stroke-width="40" stroke-miterlimit="10" x1="18" y1="370.5" x2="582" y2="370.5"/>
				<line fill="#34C3AD" stroke="#C88CB6" stroke-width="40" stroke-miterlimit="10" x1="18" y1="422.5" x2="582" y2="422.5"/>
				<line fill="#1ED3C0" stroke="#DB83AE" stroke-width="40" stroke-miterlimit="10" x1="18" y1="474.5" x2="582" y2="474.5"/>
				<line fill="#09E3D2" stroke="#ED7AA6" stroke-width="40" stroke-miterlimit="10" x1="18" y1="526.5" x2="582" y2="526.5"/>
			</g>
		</g>
	</g>
</g>
<g id="beak">
	<g>
		<path fill="#F9E453" d="M235.19,249.196l-24.586,28.146l-55.683,70.236l-4.933,5.745
			C116.267,394.729,32.962,498.544,33.222,509.346c0,0,15.943-9.711,35.579-23.797c19.636-14.087,86.738-71.183,86.738-71.183
			s81.365-67.395,93.316-69.53c11.952-2.135,30.048-24.381,30.476-28.223l64.951-49.465"/>
	</g>
	<path display="none" fill="none" stroke="#000000" stroke-miterlimit="10" d="M209.852,71.741
		c-10.633,1.182-102.927,75.759-122.873,94.281C68.203,183.458-51.065,298.24-51.065,298.24"/>
	<g>
		<defs>
			<path id="SVGID_3_" d="M235.19,249.196l-24.586,28.146l-55.683,70.236l-4.933,5.745
				C116.267,394.729,23.079,501.381,28.75,512.131c22.236-13.609,22.147-13.736,40.051-26.582
				c19.636-14.087,86.738-71.183,86.738-71.183s81.365-67.395,93.316-69.53c11.952-2.135,30.048-24.381,30.476-28.223l64.951-49.465
				"/>
		</defs>
		<clipPath id="SVGID_4_">
			<use xlink:href="#SVGID_3_"  overflow="visible"/>
		</clipPath>
		<g clip-path="url(#SVGID_4_)">
			<path d="M40.296,506.274l-2.332,1.604c1.193-1.147,120.836-117.609,139.402-134.85c19.292-17.916,112.172-93.232,123.277-94.467
				l0.155,1.409c-10.28,1.143-101.984,75.075-122.468,94.096C159.774,391.299,41.489,505.128,40.296,506.274z"/>
		</g>
	</g>
	<path fill="none" stroke="#000000" stroke-miterlimit="10" d="M291.055,273.728c0,0,9.667,4.594,9.667,5.538
		c0,0.945-4.613,9.108-4.613,9.108"/>
</g>
<g id="Layer_3">
	<path fill="none" stroke="#E321E8" stroke-miterlimit="10" d="M318.253,165.079"/>
	<path fill="#F2F2F2" d="M281.309,180.784L495.073,8.335C432.149,75.288,327.022,169.376,299.08,187.701"/>
	<path fill="#F2F2F2" d="M295.651,182.414L532.093,12.5C468.22,80.273,336.961,174.318,309.907,192.06"/>
</g>
<g id="body">
	<path fill="#F2F2F2" d="M206.052,371.796"/>
	<path fill="#F2F2F2" d="M233.022,386.469"/>
	<g>
		<defs>
			<circle id="SVGID_5_" cx="300" cy="294" r="250"/>
		</defs>
		<clipPath id="SVGID_6_">
			<use xlink:href="#SVGID_5_"  overflow="visible"/>
		</clipPath>
		<path clip-path="url(#SVGID_6_)" fill="#F2F2F2" d="M269.856,325.785c9.782-8.461,16.508-16.767,15.742-24.426
			c-0.766-7.66,15.95-17.841,24.456-26.584c-15.839,4.844-25.598-3.584-27.157-4.652c-3.275-2.241-6.319-13.934-6.319-13.934
			s-13.483,21.88-39.08,24.994c-12.352,1.503-16.648,2.988-23.478-2.562c-6.83-5.549,3.962-32.948,25.738-60.792
			c14.414-18.431,30.718-32.373,48.964-41.656c28.938-14.723,70.435-19.209,87.509-13.66c0,0,97.323,26.893,128.486,125.499
			c31.16,98.605,12.804,168.612-27.319,205.749c-37.772,34.961-90.811,64.177-91.611,91.737c0,0-76.056-16.348-58.787-29.5
			c55.778-42.482,97-63,113-114.5c13.88-44.677-21.84-105.524-24.205-112.378c-8.448-24.495-44.186-52.929-75.85-31.19
			c0,0-146.151,100.339-162.543,98.619C207.032,371.796,260.813,333.605,269.856,325.785z"/>
	</g>
</g>
<g id="black">
	<path fill="#252626" d="M520.709,381.875c-0.069,2.302-0.196,8.251-0.65,13.942c-0.59,7.384-2.124,17.23-2.124,17.23
		c1.002-31.173-1.066-39.679-21.111-97.386c-11.603-33.396-65.394-76.773-74.648-73.613c-33.727,11.52-46.785-23.393-58.305-23.393
		c-4.979,0-2.154,0.631-14.533,7.461c-12.379,6.83-26.477,13.54-40.228,7.958c-8.298-3.37-8.862-13.507-10.569-8.812
		c-1.707,4.696-21.771,1.708-26.04,18.783c-4.269,17.075-12.378,19.635-22.196,22.624c-9.817,2.988-6.403-8.111-6.403-8.111
		s13.234-2.988,17.075-16.221c3.841-13.232,7.684-17.501,7.684-17.501s44.247-25.416,45.676-42.26s42.103-23.701,56.527-21.362
		c27.095,4.394,82.634,35.106,114.522,82.016c14.293,21.03,27.479,55.47,32.843,103.444
		C519.114,354.589,520.931,374.432,520.709,381.875z"/>
</g>
<g id="eye">
	<path fill="#252626" d="M283.85,245.502c4.317-4.779,12.461-9.717,17.587-8.287c2.646,0.738,11.267,12.519,1.074,28.258
		c-2.921,4.51-15.275,8.596-19.613,4.65c-1.141-1.037-7.636-7.605-6.75-13.188C276.167,256.811,281.253,248.378,283.85,245.502z"/>
	<rect x="28.75" y="148.832" fill="#154944" stroke="#E321E8" stroke-miterlimit="10" width="0" height="0"/>
	
		<ellipse transform="matrix(-0.9454 0.326 -0.326 -0.9454 654.7338 395.5898)" fill="#FFFFFF" cx="294.216" cy="252.662" rx="4.149" ry="6.021"/>
	<path fill="none" stroke="#000000" stroke-miterlimit="10" d="M228.181,306.203c0,0-49.437,44.901-55.871,55.702"/>
	<g>
		<path fill="#222222" d="M213.026,544.594c8.75,0.521,15.364,3.191,19.844,8.008c4.479,4.818,6.719,11.082,6.719,18.789
			c0,8.178-3.203,15.6-9.609,22.266c10.625,2.293,19.375,6.875,26.25,13.75c9.426,9.48,14.141,21.016,14.141,34.609
			c0,13.543-4.766,25.131-14.297,34.766c-8.803,8.75-19.871,13.465-33.203,14.141V691h-48.828V544.594H213.026z M215.058,592.797
			c5-0.832,9.036-2.76,12.109-5.781c4.062-3.957,6.094-9.062,6.094-15.312c-0.312-12.863-7.605-19.297-21.875-19.297h-30.312v40.391
			H215.058z M181.073,600.531v82.656h43.672c10.416-0.625,19.348-4.66,26.797-12.109c8.072-8.125,12.109-17.812,12.109-29.062
			c0-11.301-4.062-21.016-12.188-29.141c-7.917-7.916-16.875-11.953-26.875-12.109v-0.234H181.073z"/>
		<path fill="#222222" d="M311.269,578.291v4.336h-28.312v31.596h8.768v4.336h-8.768v14.826h28.312v4.336h-32.648v-59.43H311.269z"
			/>
		<path fill="#222222" d="M342.769,624.775v-46.484h4.337v62.648l-28.312-49.035v45.816h-4.336v-61.98L342.769,624.775z"/>
		<path fill="#222222" d="M381.793,624.775v-46.484h4.336v62.648l-28.312-49.035v45.816h-4.336v-61.98L381.793,624.775z"/>
		<path fill="#222222" d="M425.09,578.291h4.336v42.5h-0.063c-0.256,5.059-1.987,9.404-5.196,13.039
			c-3.934,3.529-7.992,5.293-12.18,5.293c-0.447,0-0.904-0.021-1.371-0.064c-0.468,0.043-0.925,0.064-1.371,0.064
			c-4.209,0-8.269-1.764-12.18-5.293c-3.209-3.635-4.941-7.98-5.196-13.039h-0.159v-42.5h4.304v41.639h0.096
			c0.063,4.252,1.392,7.887,3.985,10.904c3.082,2.699,6.164,4.049,9.246,4.049c0.425,0,0.85-0.021,1.275-0.064
			c0.425,0.043,0.85,0.064,1.275,0.064c3.061,0,6.143-1.35,9.246-4.049c2.401-2.826,3.719-6.186,3.953-10.076V578.291z"/>
	</g>
</g>
<g id="Layer_7">
</g>
</svg>
